<svg width="531" height="333" viewBox="0 0 531 333" fill="none" xmlns="http://www.w3.org/2000/svg">
<rect width="531" height="333" fill="white"/>
<path fill-rule="evenodd" clip-rule="evenodd" d="M232.385 119.706C208.424 119.706 189 100.281 189 76.3201V43H265.706V119.706H232.385ZM206.832 81.3526H253.538C254.174 88.8188 250.584 103.751 231.138 103.751C211.693 103.751 206.832 88.8188 206.832 81.3526Z" fill="#1E1E1E"/>
<path fill-rule="evenodd" clip-rule="evenodd" d="M299.088 119.705C323.049 119.705 342.474 139.13 342.474 163.091V196.411H265.768V119.705H299.088ZM323.406 159.027C323.656 161.952 322.352 166.352 319.268 170.033C316.22 173.672 311.481 176.547 304.913 176.547C299.021 176.547 293.975 173.681 290.376 169.974C286.741 166.228 284.756 161.81 284.756 158.934H282.568C282.568 162.586 284.947 167.521 288.806 171.498C292.702 175.512 298.282 178.735 304.913 178.735C312.193 178.735 317.525 175.521 320.945 171.438C324.33 167.398 325.893 162.444 325.587 158.841L323.406 159.027Z" fill="#1E1E1E"/>
<path fill-rule="evenodd" clip-rule="evenodd" d="M342.474 119.706H309.154C285.193 119.706 265.768 100.281 265.768 76.3201V43H342.474V119.706ZM286.066 68.5259C284.931 69.8777 284.48 71.4654 284.564 72.4549L282.787 72.6067C282.655 71.0637 283.319 69.0227 284.699 67.3787C286.109 65.6996 288.309 64.3812 291.29 64.3812C294.025 64.3812 296.309 65.7076 297.888 67.3303C299.436 68.9221 300.446 70.9475 300.446 72.5308H298.662C298.662 71.5816 297.975 69.9783 296.609 68.5743C295.273 67.2013 293.425 66.1652 291.29 66.1652C288.887 66.1652 287.171 67.2093 286.066 68.5259ZM311.905 72.4552C311.821 71.4645 312.271 69.8762 313.401 68.5246C314.502 67.2081 316.21 66.1652 318.601 66.1652C320.725 66.1652 322.565 67.2001 323.895 68.573C325.255 69.9766 325.94 71.5803 325.94 72.5308H327.724C327.724 70.9488 326.719 68.9237 325.176 67.3316C323.604 65.7088 321.328 64.3812 318.601 64.3812C315.629 64.3812 313.437 65.7008 312.032 67.3801C310.657 69.0242 309.996 71.0647 310.128 72.6064L311.905 72.4552Z" fill="#22B34F"/>
<path fill-rule="evenodd" clip-rule="evenodd" d="M222.32 119.705H189V196.411H265.706V163.091C265.706 139.13 246.281 119.705 222.32 119.705ZM221.158 150.895C221.158 154.851 217.95 158.058 213.993 158.058C210.037 158.058 206.83 154.851 206.83 150.895C206.83 146.938 210.037 143.731 213.993 143.731C217.95 143.731 221.158 146.938 221.158 150.895ZM248.186 150.895C248.186 154.851 244.979 158.058 241.023 158.058C237.066 158.058 233.858 154.851 233.858 150.895C233.858 146.938 237.066 143.731 241.023 143.731C244.979 143.731 248.186 146.938 248.186 150.895Z" fill="#22B34F"/>
<path d="M36 280.44V236.006H65.4208V243.751H45.3947V254.339H63.4681V262.085H45.3947V280.44H36ZM112.573 258.223C112.573 263.069 111.655 267.191 109.818 270.59C107.995 273.989 105.507 276.586 102.354 278.379C99.2152 280.158 95.6859 281.048 91.766 281.048C87.8172 281.048 84.2734 280.151 81.1346 278.358C77.9958 276.564 75.5152 273.968 73.6927 270.568C71.8701 267.169 70.9589 263.054 70.9589 258.223C70.9589 253.377 71.8701 249.255 73.6927 245.856C75.5152 242.457 77.9958 239.868 81.1346 238.088C84.2734 236.295 87.8172 235.398 91.766 235.398C95.6859 235.398 99.2152 236.295 102.354 238.088C105.507 239.868 107.995 242.457 109.818 245.856C111.655 249.255 112.573 253.377 112.573 258.223ZM103.048 258.223C103.048 255.084 102.578 252.437 101.638 250.282C100.712 248.127 99.4033 246.492 97.7109 245.379C96.0186 244.265 94.0369 243.708 91.766 243.708C89.4951 243.708 87.5135 244.265 85.8211 245.379C84.1288 246.492 82.8125 248.127 81.8723 250.282C80.9466 252.437 80.4837 255.084 80.4837 258.223C80.4837 261.362 80.9466 264.009 81.8723 266.164C82.8125 268.319 84.1288 269.954 85.8211 271.067C87.5135 272.181 89.4951 272.738 91.766 272.738C94.0369 272.738 96.0186 272.181 97.7109 271.067C99.4033 269.954 100.712 268.319 101.638 266.164C102.578 264.009 103.048 261.362 103.048 258.223ZM143.637 248.785C143.464 247.035 142.719 245.675 141.403 244.706C140.086 243.737 138.3 243.252 136.044 243.252C134.51 243.252 133.216 243.469 132.16 243.903C131.104 244.323 130.294 244.908 129.73 245.661C129.18 246.413 128.905 247.266 128.905 248.221C128.876 249.016 129.043 249.711 129.404 250.304C129.78 250.897 130.294 251.41 130.945 251.844C131.596 252.264 132.348 252.632 133.201 252.951C134.055 253.254 134.966 253.515 135.935 253.732L139.927 254.686C141.866 255.12 143.645 255.699 145.265 256.422C146.885 257.145 148.288 258.035 149.474 259.091C150.66 260.147 151.578 261.391 152.229 262.823C152.895 264.255 153.235 265.896 153.249 267.748C153.235 270.467 152.54 272.825 151.166 274.821C149.807 276.803 147.839 278.343 145.265 279.442C142.705 280.527 139.616 281.07 136 281.07C132.413 281.07 129.289 280.52 126.627 279.421C123.98 278.321 121.912 276.694 120.422 274.539C118.947 272.369 118.173 269.686 118.1 266.489H127.191C127.293 267.979 127.719 269.223 128.471 270.221C129.238 271.205 130.258 271.95 131.531 272.456C132.818 272.948 134.272 273.194 135.892 273.194C137.483 273.194 138.864 272.962 140.036 272.499C141.222 272.037 142.14 271.393 142.791 270.568C143.442 269.744 143.768 268.797 143.768 267.726C143.768 266.728 143.471 265.889 142.878 265.209C142.3 264.529 141.446 263.951 140.318 263.474C139.204 262.996 137.837 262.562 136.217 262.172L131.379 260.957C127.632 260.046 124.674 258.621 122.505 256.683C120.335 254.744 119.258 252.133 119.272 248.85C119.258 246.16 119.974 243.809 121.42 241.799C122.881 239.788 124.884 238.219 127.43 237.09C129.976 235.962 132.869 235.398 136.109 235.398C139.407 235.398 142.285 235.962 144.744 237.09C147.217 238.219 149.141 239.788 150.515 241.799C151.889 243.809 152.598 246.138 152.642 248.785H143.637ZM183.673 248.785C183.5 247.035 182.755 245.675 181.439 244.706C180.122 243.737 178.336 243.252 176.079 243.252C174.546 243.252 173.252 243.469 172.196 243.903C171.14 244.323 170.33 244.908 169.766 245.661C169.216 246.413 168.941 247.266 168.941 248.221C168.912 249.016 169.079 249.711 169.44 250.304C169.816 250.897 170.33 251.41 170.981 251.844C171.632 252.264 172.384 252.632 173.237 252.951C174.091 253.254 175.002 253.515 175.971 253.732L179.963 254.686C181.901 255.12 183.681 255.699 185.301 256.422C186.921 257.145 188.324 258.035 189.51 259.091C190.696 260.147 191.614 261.391 192.265 262.823C192.931 264.255 193.271 265.896 193.285 267.748C193.271 270.467 192.576 272.825 191.202 274.821C189.842 276.803 187.875 278.343 185.301 279.442C182.74 280.527 179.652 281.07 176.036 281.07C172.449 281.07 169.325 280.52 166.663 279.421C164.016 278.321 161.948 276.694 160.458 274.539C158.982 272.369 158.209 269.686 158.136 266.489H167.227C167.328 267.979 167.755 269.223 168.507 270.221C169.274 271.205 170.294 271.95 171.567 272.456C172.854 272.948 174.308 273.194 175.928 273.194C177.519 273.194 178.9 272.962 180.072 272.499C181.258 272.037 182.176 271.393 182.827 270.568C183.478 269.744 183.804 268.797 183.804 267.726C183.804 266.728 183.507 265.889 182.914 265.209C182.335 264.529 181.482 263.951 180.354 263.474C179.24 262.996 177.873 262.562 176.253 262.172L171.415 260.957C167.668 260.046 164.71 258.621 162.541 256.683C160.371 254.744 159.293 252.133 159.308 248.85C159.293 246.16 160.009 243.809 161.456 241.799C162.917 239.788 164.92 238.219 167.466 237.09C170.012 235.962 172.905 235.398 176.145 235.398C179.442 235.398 182.321 235.962 184.78 237.09C187.253 238.219 189.177 239.788 190.551 241.799C191.925 243.809 192.634 246.138 192.677 248.785H183.673ZM252.951 251.562H243.448C243.274 250.333 242.92 249.241 242.385 248.286C241.85 247.317 241.162 246.492 240.324 245.812C239.485 245.133 238.515 244.612 237.416 244.25C236.331 243.889 235.152 243.708 233.88 243.708C231.58 243.708 229.576 244.279 227.87 245.422C226.163 246.55 224.839 248.199 223.899 250.369C222.959 252.524 222.489 255.142 222.489 258.223C222.489 261.391 222.959 264.052 223.899 266.207C224.854 268.363 226.184 269.99 227.891 271.089C229.598 272.188 231.572 272.738 233.814 272.738C235.073 272.738 236.237 272.572 237.308 272.239C238.392 271.906 239.354 271.422 240.193 270.785C241.032 270.134 241.727 269.346 242.276 268.42C242.84 267.495 243.231 266.439 243.448 265.253L252.951 265.296C252.705 267.336 252.09 269.303 251.107 271.198C250.138 273.078 248.829 274.763 247.18 276.253C245.545 277.728 243.592 278.9 241.322 279.768C239.065 280.621 236.512 281.048 233.663 281.048C229.699 281.048 226.156 280.151 223.031 278.358C219.921 276.564 217.462 273.968 215.654 270.568C213.861 267.169 212.964 263.054 212.964 258.223C212.964 253.377 213.875 249.255 215.698 245.856C217.52 242.457 219.994 239.868 223.118 238.088C226.242 236.295 229.757 235.398 233.663 235.398C236.237 235.398 238.624 235.76 240.823 236.483C243.036 237.206 244.996 238.262 246.702 239.651C248.409 241.025 249.798 242.71 250.868 244.706C251.953 246.702 252.647 248.987 252.951 251.562ZM268.757 236.006V280.44H259.514V236.006H268.757ZM297.532 266.251V247.114H306.775V280.44H297.901V274.387H297.554C296.802 276.34 295.551 277.909 293.801 279.095C292.065 280.281 289.946 280.874 287.443 280.874C285.216 280.874 283.256 280.368 281.564 279.356C279.871 278.343 278.548 276.904 277.593 275.038C276.653 273.172 276.176 270.937 276.161 268.334V247.114H285.404V266.685C285.418 268.652 285.946 270.207 286.988 271.35C288.029 272.492 289.425 273.064 291.175 273.064C292.289 273.064 293.33 272.81 294.3 272.304C295.269 271.783 296.05 271.017 296.643 270.004C297.25 268.992 297.547 267.741 297.532 266.251ZM314.342 280.44V236.006H323.585V252.712H323.867C324.272 251.815 324.858 250.904 325.624 249.978C326.405 249.038 327.418 248.257 328.662 247.635C329.92 246.999 331.482 246.68 333.348 246.68C335.778 246.68 338.02 247.317 340.074 248.59C342.128 249.848 343.77 251.75 344.999 254.296C346.229 256.827 346.844 260.002 346.844 263.821C346.844 267.538 346.243 270.677 345.043 273.237C343.857 275.783 342.237 277.714 340.183 279.03C338.143 280.332 335.858 280.983 333.327 280.983C331.533 280.983 330.007 280.686 328.749 280.093C327.505 279.5 326.485 278.755 325.689 277.859C324.894 276.947 324.286 276.029 323.867 275.103H323.455V280.44H314.342ZM323.389 263.777C323.389 265.759 323.664 267.487 324.214 268.963C324.764 270.438 325.559 271.588 326.601 272.413C327.642 273.223 328.908 273.628 330.397 273.628C331.902 273.628 333.175 273.215 334.216 272.391C335.258 271.552 336.046 270.395 336.581 268.919C337.131 267.43 337.405 265.716 337.405 263.777C337.405 261.854 337.138 260.161 336.603 258.7C336.068 257.239 335.279 256.097 334.238 255.272C333.196 254.448 331.916 254.036 330.397 254.036C328.893 254.036 327.62 254.433 326.579 255.229C325.552 256.024 324.764 257.153 324.214 258.614C323.664 260.074 323.389 261.796 323.389 263.777Z" fill="#1A1A1A"/>
<path d="M389.052 248.584C388.876 246.808 388.12 245.429 386.784 244.445C385.449 243.462 383.636 242.97 381.346 242.97C379.79 242.97 378.477 243.19 377.405 243.631C376.334 244.056 375.512 244.651 374.939 245.414C374.381 246.177 374.102 247.043 374.102 248.012C374.073 248.819 374.242 249.524 374.609 250.126C374.99 250.727 375.512 251.249 376.172 251.689C376.833 252.115 377.596 252.489 378.462 252.812C379.328 253.12 380.253 253.384 381.236 253.604L385.287 254.573C387.254 255.013 389.059 255.601 390.703 256.334C392.347 257.068 393.771 257.971 394.975 259.043C396.178 260.114 397.11 261.376 397.771 262.83C398.446 264.283 398.791 265.949 398.806 267.827C398.791 270.587 398.086 272.979 396.692 275.005C395.312 277.016 393.316 278.579 390.703 279.695C388.105 280.795 384.972 281.346 381.302 281.346C377.662 281.346 374.491 280.788 371.791 279.673C369.105 278.557 367.006 276.906 365.494 274.719C363.997 272.517 363.211 269.794 363.138 266.55H372.363C372.466 268.062 372.899 269.325 373.662 270.337C374.44 271.335 375.475 272.091 376.767 272.605C378.073 273.104 379.548 273.354 381.192 273.354C382.807 273.354 384.208 273.119 385.397 272.649C386.601 272.179 387.533 271.526 388.193 270.69C388.854 269.853 389.184 268.892 389.184 267.805C389.184 266.793 388.883 265.941 388.281 265.251C387.694 264.562 386.828 263.974 385.683 263.49C384.553 263.006 383.166 262.565 381.522 262.169L376.612 260.936C372.811 260.011 369.809 258.566 367.607 256.599C365.406 254.632 364.312 251.982 364.327 248.651C364.312 245.92 365.039 243.535 366.507 241.495C367.989 239.455 370.022 237.862 372.605 236.717C375.189 235.572 378.124 235 381.412 235C384.759 235 387.68 235.572 390.175 236.717C392.685 237.862 394.637 239.455 396.031 241.495C397.426 243.535 398.145 245.898 398.189 248.584H389.052ZM405.218 280.707V235.616H423.008C426.413 235.616 429.319 236.226 431.727 237.444C434.148 238.647 435.991 240.357 437.253 242.574C438.53 244.776 439.168 247.366 439.168 250.346C439.168 253.34 438.522 255.916 437.231 258.074C435.939 260.217 434.068 261.861 431.616 263.006C429.18 264.151 426.23 264.723 422.766 264.723H410.854V257.061H421.224C423.045 257.061 424.556 256.812 425.76 256.312C426.964 255.813 427.859 255.065 428.446 254.067C429.048 253.069 429.349 251.828 429.349 250.346C429.349 248.849 429.048 247.586 428.446 246.559C427.859 245.531 426.956 244.754 425.738 244.225C424.534 243.682 423.015 243.411 421.18 243.411H414.751V280.707H405.218ZM429.569 260.187L440.776 280.707H430.251L419.287 260.187H429.569ZM445.906 235.616H457.663L470.08 265.912H470.609L483.026 235.616H494.783V280.707H485.536V251.359H485.162L473.493 280.487H467.196L455.527 251.249H455.153V280.707H445.906V235.616Z" fill="#1A1A1A"/>
</svg>
