<svg width="1000" height="1000" viewBox="0 0 1000 1000" fill="none" xmlns="http://www.w3.org/2000/svg">
<rect width="1000" height="1000" fill="white"/>
<path d="M150.34 584.151L90 417.936H125.634L171.008 550.433L216.619 417.936H251.778L191.438 584.151H150.34Z" fill="#FF5A60"/>
<path d="M266.093 584.151V464.476H299.351V584.151H266.093ZM282.722 449.042C276.704 449.042 271.794 447.301 267.993 443.818C264.192 440.177 262.292 435.745 262.292 430.521C262.292 425.139 264.192 420.706 267.993 417.224C271.794 413.741 276.704 412 282.722 412C288.74 412 293.65 413.741 297.451 417.224C301.252 420.706 303.152 425.139 303.152 430.521C303.152 435.745 301.252 440.177 297.451 443.818C293.65 447.301 288.74 449.042 282.722 449.042Z" fill="#FF5A60"/>
<path d="M375.042 587C363.956 587 354.374 585.259 346.297 581.776C338.22 578.135 331.885 573.307 327.292 567.292C322.699 561.118 320.007 554.153 319.215 546.396H352.474C353.107 549.246 354.295 551.858 356.037 554.232C357.937 556.448 360.392 558.269 363.401 559.693C366.569 561.118 370.291 561.83 374.567 561.83C378.684 561.83 382.01 561.276 384.544 560.168C387.236 558.902 389.216 557.319 390.483 555.419C391.908 553.52 392.621 551.462 392.621 549.246C392.621 546.08 391.671 543.626 389.77 541.885C387.87 540.143 385.098 538.719 381.456 537.611C377.813 536.502 373.458 535.474 368.39 534.524C362.689 533.257 357.066 531.833 351.523 530.25C346.139 528.667 341.229 526.609 336.795 524.076C332.519 521.385 329.113 518.061 326.58 514.103C324.046 510.146 322.779 505.238 322.779 499.381C322.779 492.258 324.679 485.847 328.48 480.148C332.439 474.449 338.062 469.938 345.347 466.613C352.79 463.289 361.659 461.627 371.953 461.627C386.524 461.627 398.006 464.951 406.4 471.6C414.952 478.09 420.02 486.955 421.603 498.194H390.246C389.454 494.711 387.474 492.02 384.307 490.121C381.139 488.221 376.942 487.271 371.716 487.271C366.331 487.271 362.134 488.221 359.125 490.121C356.274 492.02 354.849 494.553 354.849 497.719C354.849 499.777 355.799 501.677 357.7 503.418C359.6 505.001 362.293 506.426 365.777 507.692C369.419 508.8 373.854 509.908 379.08 511.016C388.424 512.916 396.58 515.132 403.549 517.665C410.517 520.039 415.981 523.522 419.941 528.113C423.9 532.545 425.88 539.035 425.88 547.583C426.038 555.182 423.979 561.989 419.703 568.004C415.585 574.019 409.725 578.689 402.124 582.014C394.522 585.338 385.494 587 375.042 587Z" fill="#FF5A60"/>
<path d="M487.985 587C478.165 587 469.93 585.417 463.278 582.251C456.785 578.927 451.955 574.574 448.787 569.191C445.778 563.651 444.274 557.556 444.274 550.908C444.274 543.784 446.095 537.452 449.737 531.912C453.38 526.371 459.002 522.018 466.604 518.852C474.206 515.686 483.708 514.103 495.111 514.103H524.569C524.569 508.404 523.777 503.735 522.193 500.094C520.768 496.294 518.392 493.445 515.066 491.545C511.899 489.646 507.623 488.696 502.238 488.696C496.378 488.696 491.39 489.962 487.272 492.495C483.313 495.028 480.858 498.827 479.908 503.893H447.599C448.55 495.345 451.4 487.984 456.152 481.81C460.903 475.478 467.238 470.571 475.156 467.088C483.233 463.447 492.34 461.627 502.476 461.627C513.72 461.627 523.46 463.526 531.696 467.326C540.089 471.125 546.503 476.586 550.938 483.71C555.531 490.833 557.827 499.619 557.827 510.066V584.151H529.795L525.994 566.104C524.41 569.27 522.352 572.12 519.818 574.653C517.442 577.185 514.67 579.402 511.503 581.301C508.336 583.043 504.772 584.388 500.813 585.338C497.012 586.446 492.736 587 487.985 587ZM496.062 561.356C500.021 561.356 503.584 560.722 506.752 559.456C509.919 558.031 512.612 556.052 514.829 553.52C517.046 550.987 518.867 548.137 520.293 544.971C521.718 541.647 522.668 538.085 523.143 534.286V534.049H499.15C494.557 534.049 490.756 534.682 487.747 535.948C484.896 537.057 482.758 538.719 481.333 540.935C479.908 542.993 479.195 545.367 479.195 548.058C479.195 550.908 479.908 553.361 481.333 555.419C482.758 557.477 484.738 558.981 487.272 559.931C489.806 560.881 492.736 561.356 496.062 561.356Z" fill="#FF5A60"/>
<path d="M582.323 584.151V464.476H611.781L614.869 486.559C617.878 481.335 621.521 476.903 625.797 473.262C630.073 469.621 635.062 466.772 640.763 464.714C646.465 462.656 652.641 461.627 659.293 461.627V496.769H648.128C643.376 496.769 638.942 497.323 634.824 498.431C630.865 499.54 627.381 501.36 624.372 503.893C621.521 506.267 619.304 509.592 617.72 513.866C616.295 517.981 615.582 523.205 615.582 529.537V584.151H582.323Z" fill="#FF5A60"/>
<path d="M675.77 584.151V464.476H709.028V584.151H675.77ZM692.399 449.042C686.381 449.042 681.471 447.301 677.67 443.818C673.869 440.177 671.969 435.745 671.969 430.521C671.969 425.139 673.869 420.706 677.67 417.224C681.471 413.741 686.381 412 692.399 412C698.417 412 703.327 413.741 707.128 417.224C710.929 420.706 712.829 425.139 712.829 430.521C712.829 435.745 710.929 440.177 707.128 443.818C703.327 447.301 698.417 449.042 692.399 449.042Z" fill="#FF5A60"/>
<path d="M792.32 587C780.918 587 770.623 584.388 761.438 579.164C752.252 573.782 744.967 566.342 739.582 556.844C734.356 547.346 731.743 536.582 731.743 524.551C731.743 512.204 734.356 501.281 739.582 491.783C744.967 482.285 752.252 474.924 761.438 469.7C770.623 464.318 780.997 461.627 792.558 461.627C804.119 461.627 814.493 464.318 823.678 469.7C832.864 474.924 840.07 482.285 845.296 491.783C850.681 501.123 853.373 511.966 853.373 524.313C853.373 536.661 850.681 547.583 845.296 557.081C839.912 566.421 832.626 573.782 823.441 579.164C814.414 584.388 804.04 587 792.32 587ZM792.32 558.269C797.547 558.269 802.14 557.002 806.099 554.469C810.058 551.937 813.226 548.138 815.601 543.072C818.135 538.006 819.402 531.754 819.402 524.313C819.402 516.873 818.214 510.621 815.839 505.555C813.463 500.489 810.217 496.69 806.099 494.157C802.14 491.625 797.626 490.358 792.558 490.358C787.648 490.358 783.135 491.625 779.017 494.157C774.899 496.69 771.653 500.489 769.277 505.555C766.902 510.621 765.714 516.873 765.714 524.313C765.714 531.754 766.902 538.006 769.277 543.072C771.653 548.138 774.82 551.937 778.78 554.469C782.897 557.002 787.411 558.269 792.32 558.269Z" fill="#FF5A60"/>
<path d="M890.57 585.338C884.552 585.338 879.642 583.517 875.841 579.877C872.04 576.077 870.14 571.566 870.14 566.342C870.14 560.96 872.04 556.448 875.841 552.807C879.642 549.166 884.552 547.346 890.57 547.346C896.588 547.346 901.498 549.166 905.299 552.807C909.1 556.448 911 560.96 911 566.342C911 571.566 909.1 576.077 905.299 579.877C901.498 583.517 896.588 585.338 890.57 585.338Z" fill="#FF5A60"/>
</svg>
